<?xml version="1.0" standalone="no"?><svg xmlns="http://www.w3.org/2000/svg" viewBox="0 0 1440 320"><path fill="#E8E8ED" fill-opacity="1" d="M0,224L30,229.3C60,235,120,245,180,250.7C240,256,300,256,360,224C420,192,480,128,540,128C600,128,660,192,720,192C780,192,840,128,900,101.3C960,75,1020,85,1080,122.7C1140,160,1200,224,1260,256C1320,288,1380,288,1410,288L1440,288L1440,0L1410,0C1380,0,1320,0,1260,0C1200,0,1140,0,1080,0C1020,0,960,0,900,0C840,0,780,0,720,0C660,0,600,0,540,0C480,0,420,0,360,0C300,0,240,0,180,0C120,0,60,0,30,0L0,0Z"></path></svg>