<?xml version="1.0" standalone="no"?><svg xmlns="http://www.w3.org/2000/svg" viewBox="0 0 1440 320"><path fill="#EBEBEB" fill-opacity="1" d="M0,32L26.7,58.7C53.3,85,107,139,160,138.7C213.3,139,267,85,320,74.7C373.3,64,427,96,480,144C533.3,192,587,256,640,261.3C693.3,267,747,213,800,170.7C853.3,128,907,96,960,85.3C1013.3,75,1067,85,1120,106.7C1173.3,128,1227,160,1280,154.7C1333.3,149,1387,107,1413,85.3L1440,64L1440,320L1413.3,320C1386.7,320,1333,320,1280,320C1226.7,320,1173,320,1120,320C1066.7,320,1013,320,960,320C906.7,320,853,320,800,320C746.7,320,693,320,640,320C586.7,320,533,320,480,320C426.7,320,373,320,320,320C266.7,320,213,320,160,320C106.7,320,53,320,27,320L0,320Z"></path></svg>